# xmcd CD database file
#
# Track frame offsets:
#	150
#	19295
#	34766
#	49186
#	69199
#	86043
#	105037
#	120540
#	137136
#	153674
#	167670
#	183180
#
# Disc length: 2691 seconds
#
# Revision: 1
# Processed by: cddbd v1.5.2PL0 Copyright (c) Steve Scherf et al.
# Submitted via: CDex 1.51
#
DISCID=930a810c
DTITLE=Kate Walsh - Light and Dark
DYEAR=2009
DGENRE=Country
TTITLE0=As He Pleases
TTITLE1=Trying
TTITLE2=June Last Year
TTITLE3=Greatest Love
TTITLE4=Light and Dark
TTITLE5=Seafarer
TTITLE6=Be Mine
TTITLE7=1000 Bees
TTITLE8=On The Stage
TTITLE9=I Cling On For Dear Life
TTITLE10=Old Man
TTITLE11=Gather My Strength
EXTD=YEAR: 2009
EXTT0=
EXTT1=
EXTT2=
EXTT3=
EXTT4=
EXTT5=
EXTT6=
EXTT7=
EXTT8=
EXTT9=
EXTT10=
EXTT11=
PLAYORDER=
